<svg xmlns="http://www.w3.org/2000/svg" width="293.772" height="53.605" viewBox="0 0 293.772 53.605">
  <g id="Group_127" data-name="Group 127" transform="translate(-561.789 327)">
    <path id="Path_86" data-name="Path 86" d="M55.93,22.5a7.95,7.95,0,0,1-3.3,3.121,11.164,11.164,0,0,1-5.29,1.158H44.161V34.9H36.146V9.339H47.337q4.694,0,7.2,2.383a8.4,8.4,0,0,1,2.509,6.39A8.714,8.714,0,0,1,55.93,22.5m-7-4.386q0-2.346-2.49-2.347H44.161v4.694h2.275q2.489,0,2.49-2.347" transform="translate(582.279 -321.706)" fill="#111c23"/>
    <path id="Path_87" data-name="Path 87" d="M66.3,31.036H57.779L56.514,34.9H48.1L57.454,9.339H66.7L76.009,34.9H67.561Zm-1.949-6.029-2.311-7.112-2.31,7.112Z" transform="translate(589.058 -321.706)" fill="#111c23"/>
    <path id="Path_88" data-name="Path 88" d="M66.756,15.424a11.1,11.1,0,0,1,4.386-4.6,13.234,13.234,0,0,1,6.714-1.642,13.658,13.658,0,0,1,5.94,1.246,10.977,10.977,0,0,1,4.259,3.521,12.758,12.758,0,0,1,2.184,5.306H81.792a4.576,4.576,0,0,0-1.644-1.966,4.31,4.31,0,0,0-2.437-.705A3.819,3.819,0,0,0,74.518,18.1a6.489,6.489,0,0,0-1.174,4.08,6.488,6.488,0,0,0,1.174,4.079,3.818,3.818,0,0,0,3.193,1.515,4.322,4.322,0,0,0,2.437-.7A4.571,4.571,0,0,0,81.792,25.1h8.447a12.771,12.771,0,0,1-2.184,5.309A10.987,10.987,0,0,1,83.8,33.926a13.68,13.68,0,0,1-5.94,1.246,13.218,13.218,0,0,1-6.714-1.644,11.082,11.082,0,0,1-4.386-4.6,14.456,14.456,0,0,1-1.534-6.75,14.458,14.458,0,0,1,1.534-6.752" transform="translate(598.762 -321.797)" fill="#111c23"/>
    <path id="Path_89" data-name="Path 89" d="M98.482,34.9,91.045,23.815V34.9H83.03V9.339h8.015V20.1L98.373,9.339h9.061L98.626,21.578l9.387,13.32Z" transform="translate(608.858 -321.706)" fill="#111c23"/>
    <path id="Path_90" data-name="Path 90" d="M108.439,15.729v3.14h7.943V24.9h-7.943v3.61h9.025V34.9h-17.04V9.339h17.04v6.39Z" transform="translate(618.719 -321.706)" fill="#111c23"/>
    <path id="Path_91" data-name="Path 91" d="M144.417,9.339V34.9h-7.979V22.155L132.5,34.9h-6.858l-3.936-12.744V34.9H113.7V9.339h9.818l5.631,15.343,5.487-15.343Z" transform="translate(626.242 -321.706)" fill="#111c23"/>
    <path id="Path_92" data-name="Path 92" d="M168.718,9.546,161.57,34.78h-2.816L152.4,13.265,145.9,34.78l-2.744.036-7-25.269h2.708l5.776,22.129L151.1,9.546h2.816L160.2,31.676,166.01,9.546Z" transform="translate(638.975 -321.588)" fill="#111c23"/>
    <path id="Path_93" data-name="Path 93" d="M183.6,9.754V34.663h-2.527V14.771L172.19,34.663h-1.841l-8.88-19.818V34.663h-2.527V9.754h2.672l9.64,21.587,9.638-21.587Z" transform="translate(651.891 -321.47)" fill="#111c23"/>
    <path id="Path_94" data-name="Path 94" d="M181,34.271a7.178,7.178,0,0,1-2.979-2.418,6.369,6.369,0,0,1-1.155-3.466h2.672a5.076,5.076,0,0,0,1.625,3.231,5.858,5.858,0,0,0,4.223,1.388,5.93,5.93,0,0,0,4.061-1.316,4.256,4.256,0,0,0,1.5-3.339,3.95,3.95,0,0,0-.83-2.618,5.1,5.1,0,0,0-2.057-1.481,32.116,32.116,0,0,0-3.394-1.064,29.6,29.6,0,0,1-4.007-1.337,6.371,6.371,0,0,1-2.527-2.021,5.985,5.985,0,0,1-1.047-3.718,6.18,6.18,0,0,1,1.012-3.483,6.749,6.749,0,0,1,2.85-2.4,9.807,9.807,0,0,1,4.224-.866,8.8,8.8,0,0,1,5.65,1.714,6.45,6.45,0,0,1,2.473,4.423h-2.744a4.544,4.544,0,0,0-1.7-2.762,6.713,6.713,0,0,0-7.689,0,4,4,0,0,0-1.517,3.3,3.82,3.82,0,0,0,.83,2.563,5.282,5.282,0,0,0,2.076,1.479,30.387,30.387,0,0,0,3.375,1.084,30.842,30.842,0,0,1,3.971,1.352,6.5,6.5,0,0,1,2.563,2.04,5.926,5.926,0,0,1,1.047,3.682,6.5,6.5,0,0,1-.939,3.358,6.852,6.852,0,0,1-2.78,2.563,9.289,9.289,0,0,1-4.4.975A10.438,10.438,0,0,1,181,34.271" transform="translate(662.053 -321.693)" fill="#111c23"/>
    <path id="Path_95" data-name="Path 95" d="M39.808,17.22V36.385l-16.59,9.583-11.6-6.647V46.9l11.6,6.7L46.436,40.2V13.4L23.218,0,16.59,3.836ZM23.218,39.79l11.691-6.736V19.561L12.1,6.412,0,13.4V40.2l6.611,3.819L6.628,44V17.22l5.512-3.17L28.279,23.38v5.854L23.218,32.17l-11.6-6.736V33.09Z" transform="translate(561.789 -327)" fill="#e1252c"/>
  </g>
</svg>
