<svg xmlns="http://www.w3.org/2000/svg" xmlns:xlink="http://www.w3.org/1999/xlink" width="226.092" height="57.825" viewBox="0 0 226.092 57.825">
  <defs>
    <clipPath id="clip-path">
      <rect id="Rectangle_1" data-name="Rectangle 1" width="226.092" height="57.825" fill="#fff"/>
    </clipPath>
  </defs>
  <g id="Group_8" data-name="Group 8" transform="translate(0 0)">
    <g id="Group_1" data-name="Group 1" transform="translate(0 0)" clip-path="url(#clip-path)">
      <path id="Path_1" data-name="Path 1" d="M55.861,23.113a8.609,8.609,0,0,1-3.565,3.37,12.071,12.071,0,0,1-5.7,1.244H43.165V36.49H34.519V8.918H46.592q5.06,0,7.768,2.57a9.06,9.06,0,0,1,2.708,6.894,9.408,9.408,0,0,1-1.207,4.731M48.3,18.382q0-2.53-2.687-2.531H43.165v5.062h2.453q2.687,0,2.687-2.531" transform="translate(26.577 6.866)" fill="#fff"/>
      <path id="Path_2" data-name="Path 2" d="M65.565,32.323H56.375L55.012,36.49H45.938L56.025,8.918h9.968L76.041,36.49H66.928Zm-2.1-6.5L60.97,18.148l-2.492,7.671Z" transform="translate(35.369 6.866)" fill="#fff"/>
      <path id="Path_3" data-name="Path 3" d="M63.941,15.5a11.939,11.939,0,0,1,4.731-4.965,14.272,14.272,0,0,1,7.244-1.772,14.734,14.734,0,0,1,6.405,1.343,11.849,11.849,0,0,1,4.595,3.8,13.791,13.791,0,0,1,2.358,5.726H80.16a4.942,4.942,0,0,0-1.772-2.124,4.66,4.66,0,0,0-2.628-.759,4.126,4.126,0,0,0-3.448,1.635,7.006,7.006,0,0,0-1.266,4.4,7,7,0,0,0,1.266,4.4A4.126,4.126,0,0,0,75.76,28.82a4.66,4.66,0,0,0,2.628-.759,4.942,4.942,0,0,0,1.772-2.124h9.113a13.791,13.791,0,0,1-2.358,5.726,11.849,11.849,0,0,1-4.595,3.8A14.734,14.734,0,0,1,75.916,36.8a14.254,14.254,0,0,1-7.244-1.772,11.939,11.939,0,0,1-4.731-4.965,15.581,15.581,0,0,1-1.655-7.281A15.583,15.583,0,0,1,63.941,15.5" transform="translate(47.955 6.748)" fill="#fff"/>
      <path id="Path_4" data-name="Path 4" d="M95.96,36.49,87.937,24.534V36.49H79.293V8.918h8.644V20.523L95.843,8.918h9.775l-9.5,13.2,10.126,14.37Z" transform="translate(61.049 6.866)" fill="#fff"/>
      <path id="Path_5" data-name="Path 5" d="M104.549,15.812V19.2h8.568v6.5h-8.568v3.9h9.735V36.49H95.9V8.918h18.379v6.894Z" transform="translate(73.839 6.866)" fill="#fff"/>
      <path id="Path_6" data-name="Path 6" d="M142.157,8.918V36.49h-8.605V22.743L129.306,36.49h-7.4l-4.244-13.747V36.49h-8.646V8.918H119.61l6.074,16.551L131.6,8.918Z" transform="translate(83.935 6.866)" fill="#fff"/>
      <path id="Path_7" data-name="Path 7" d="M42.942,18.575V39.25l-17.9,10.338-12.513-7.17V50.6l12.513,7.228L50.092,43.37V14.457L25.046,0,17.9,4.138Zm-17.9,24.347,12.611-7.267V21.1L13.057,6.917,0,14.457V43.37l7.131,4.119.019-.019V18.575L13.1,15.156,30.506,25.221v6.315L25.046,34.7,12.533,27.436v8.258Z" transform="translate(0 -0.001)" fill="#fff"/>
    </g>
  </g>
</svg>
